<svg xmlns="http://www.w3.org/2000/svg" xmlns:xlink="http://www.w3.org/1999/xlink" viewBox="0 0 340 150"><defs><style>.cls-1{fill-rule:evenodd;fill:url(#linear-gradient);}.cls-2{fill:#505f79;}</style><linearGradient id="linear-gradient" x1="36.81" y1="123.26" x2="36.81" y2="60.87" gradientUnits="userSpaceOnUse"><stop offset="0" stop-color="#42526e"/><stop offset="1" stop-color="#7a869a"/></linearGradient></defs><g id="Logos"><path class="cls-1" d="M60.59,38.05H13a7.42,7.42,0,0,0-7.41,7.42V93A7.42,7.42,0,0,0,13,100.44H60.59A7.42,7.42,0,0,0,68,93V45.47A7.42,7.42,0,0,0,60.59,38.05ZM32.49,83A2.46,2.46,0,0,1,30,85.45H19.6A2.47,2.47,0,0,1,17.13,83V52a2.47,2.47,0,0,1,2.47-2.46H30A2.46,2.46,0,0,1,32.49,52Zm24-14.21A2.47,2.47,0,0,1,54,71.24H43.59a2.46,2.46,0,0,1-2.46-2.46V52a2.46,2.46,0,0,1,2.46-2.46H54A2.47,2.47,0,0,1,56.49,52Z"/><path class="cls-2" d="M134.92,42.63v12h-14.3v45.76H106.85V54.68H92.56v-12Z"/><path class="cls-2" d="M152.46,100.44H139.72v-45h12.74V64.1c2.41-6.08,6.28-9.68,13.17-9.24V68.15c-8.95-.71-13.17,1.49-13.17,8.71Z"/><path class="cls-2" d="M235.24,100.79c-8.35,0-13.61-4.05-13.61-13.46V38.05h12.83V85.57c0,2.72,1.81,3.69,4,3.69a15.58,15.58,0,0,0,1.89-.08v11.08A18.13,18.13,0,0,1,235.24,100.79Z"/><path class="cls-2" d="M262,100.79c-8.35,0-13.6-4.05-13.6-13.46V38.05h12.83V85.57c0,2.72,1.81,3.69,4.05,3.69a15.75,15.75,0,0,0,1.89-.08v11.08A18.17,18.17,0,0,1,262,100.79Z"/><path class="cls-2" d="M273.31,77.91c0-13.9,8-23.4,21.78-23.4S316.7,64,316.7,77.91s-7.92,23.58-21.61,23.58S273.31,91.73,273.31,77.91Zm12.48,0c0,6.78,2.84,12.15,9.3,12.15s9.13-5.37,9.13-12.15-2.76-12-9.13-12S285.79,71.13,285.79,77.91Z"/><path class="cls-2" d="M182.83,82a102.78,102.78,0,0,0,10.75.64c9.75,0,18-2.63,18-12.07,0-9.17-8.47-16.06-18.66-16.06-13.72,0-22.5,9.94-22.5,23.84,0,14.43,7.58,23,24.71,23A41,41,0,0,0,210,98.68V87.9c-4.39,1.41-9.35,2.8-14.43,2.8C188.74,90.7,184,88.46,182.83,82Zm9.83-17.67c3.61,0,6.51,2.44,6.51,5.8,0,4.31-4.56,5.66-9.79,5.66a44.69,44.69,0,0,1-6.66-.53,15.11,15.11,0,0,1,1.76-6A9.44,9.44,0,0,1,192.66,64.33Z"/></g></svg>